<svg xmlns="http://www.w3.org/2000/svg" width="1200" height="1500" viewBox="0 0 1200 1500"><defs><linearGradient id="oil" x1="0" x2="1"><stop stop-color="#fff2a8"/><stop offset=".42" stop-color="#c77b18"/><stop offset="1" stop-color="#9c4f17"/></linearGradient><filter id="grain"><feTurbulence baseFrequency=".8" numOctaves="2" seed="7"/></filter></defs><rect width="1200" height="1500" fill="#FAF6EC"/><g opacity=".12" fill="none" stroke="#f4b323" stroke-width="18"><path d="M80 210c130-90 240-92 340-8"/><path d="M158 150c24 52 68 76 132 72M240 110c18 58 56 88 118 92"/></g><ellipse cx="600" cy="1265" rx="285" ry="66" fill="#1f6f3d" opacity=".13"/><g transform="translate(0 0)"><path d="M330 410h540l-54 670H384L330 410Z" fill="#fff8e8" stroke="#231a12" stroke-width="8"/><path d="M360 430h480v165H360z" fill="#2f7d3c"/><text x="600" y="522" text-anchor="middle" fill="#FAF6EC" font-size="44" font-weight="800">SAI</text><text x="600" y="690" text-anchor="middle" fill="#2f7d3c" font-size="34" font-weight="900" letter-spacing="4">SAI</text><path d="M535 742c40-55 88-55 130 0-28 34-82 34-130 0Z" fill="none" stroke="#f4b323" stroke-width="10"/><text x="600" y="815" text-anchor="middle" fill="#231a12" font-size="58" font-family="Georgia,serif" font-weight="700">ROASTED</text><text x="600" y="875" text-anchor="middle" fill="#231a12" font-size="42" font-family="Georgia,serif" font-weight="700">PEANUTS</text><text x="600" y="928" text-anchor="middle" fill="#2f7d3c" font-size="24" font-weight="900" letter-spacing="3">SLOW ROASTED - 1 KG</text><text x="600" y="984" text-anchor="middle" fill="#786956" font-size="20" font-weight="700">FSSAI - SAI AGRO FOODS - KARUR</text></g><ellipse cx="380" cy="1260" rx="24" ry="13" fill="#b47a34" transform="rotate(0 380 1260)"/><ellipse cx="428" cy="1282" rx="24" ry="13" fill="#b47a34" transform="rotate(21 428 1282)"/><ellipse cx="476" cy="1260" rx="24" ry="13" fill="#b47a34" transform="rotate(42 476 1260)"/><ellipse cx="524" cy="1282" rx="24" ry="13" fill="#b47a34" transform="rotate(63 524 1282)"/><ellipse cx="572" cy="1260" rx="24" ry="13" fill="#b47a34" transform="rotate(84 572 1260)"/><text x="600" y="1390" text-anchor="middle" fill="#786956" font-size="34" font-family="Georgia,serif">ROASTED PEANUTS KITCHEN</text><rect width="1200" height="1500" filter="url(#grain)" opacity=".025"/></svg>