<svg xmlns="http://www.w3.org/2000/svg" width="1200" height="1500" viewBox="0 0 1200 1500"><defs><linearGradient id="oil" x1="0" x2="1"><stop stop-color="#fff2a8"/><stop offset=".42" stop-color="#efd36b"/><stop offset="1" stop-color="#9c4f17"/></linearGradient><filter id="grain"><feTurbulence baseFrequency=".8" numOctaves="2" seed="7"/></filter></defs><rect width="1200" height="1500" fill="#FAF6EC"/><g opacity=".12" fill="none" stroke="#f4b323" stroke-width="18"><path d="M80 210c130-90 240-92 340-8"/><path d="M158 150c24 52 68 76 132 72M240 110c18 58 56 88 118 92"/></g><ellipse cx="600" cy="1265" rx="285" ry="66" fill="#1f6f3d" opacity=".13"/><g transform="translate(0 0)"><path d="M510 260h180v145h-180z" fill="#2f7d3c"/><path d="M475 390h250l54 690c8 95-350 95-342 0l38-690Z" fill="url(#oil)" stroke="#231a12" stroke-width="7"/><path d="M514 430c-52 170-58 420-22 600" stroke="#fff" stroke-width="18" opacity=".42"/><rect x="410" y="610" width="380" height="330" rx="26" fill="#FAF6EC" stroke="#E8DFC8" stroke-width="7"/><text x="600" y="690" text-anchor="middle" fill="#2f7d3c" font-size="34" font-weight="900" letter-spacing="4">KANI BRAND</text><path d="M535 742c40-55 88-55 130 0-28 34-82 34-130 0Z" fill="none" stroke="#f4b323" stroke-width="10"/><text x="600" y="815" text-anchor="middle" fill="#231a12" font-size="58" font-family="Georgia,serif" font-weight="700">COCONUT</text><text x="600" y="875" text-anchor="middle" fill="#231a12" font-size="42" font-family="Georgia,serif" font-weight="700">OIL</text><text x="600" y="928" text-anchor="middle" fill="#2f7d3c" font-size="24" font-weight="900" letter-spacing="3">COLD PRESSED - 1 LITRE</text><text x="600" y="984" text-anchor="middle" fill="#786956" font-size="20" font-weight="700">FSSAI - SAI AGRO FOODS - KARUR</text></g><circle cx="430" cy="1260" r="68" fill="#fff" stroke="#5b351e" stroke-width="18"/><path d="M382 1222c44 25 83 27 118 0" stroke="#5b351e" stroke-width="10" fill="none"/><text x="600" y="1390" text-anchor="middle" fill="#786956" font-size="34" font-family="Georgia,serif">COCONUT OIL</text><rect width="1200" height="1500" filter="url(#grain)" opacity=".025"/></svg>