<svg xmlns="http://www.w3.org/2000/svg" width="1200" height="1500" viewBox="0 0 1200 1500"><defs><linearGradient id="oil" x1="0" x2="1"><stop stop-color="#fff2a8"/><stop offset=".42" stop-color="#f1be2c"/><stop offset="1" stop-color="#9c4f17"/></linearGradient><filter id="grain"><feTurbulence baseFrequency=".8" numOctaves="2" seed="7"/></filter></defs><rect width="1200" height="1500" fill="#FAF6EC"/><g opacity=".12" fill="none" stroke="#f4b323" stroke-width="18"><path d="M80 210c130-90 240-92 340-8"/><path d="M158 150c24 52 68 76 132 72M240 110c18 58 56 88 118 92"/></g><ellipse cx="600" cy="1265" rx="285" ry="66" fill="#1f6f3d" opacity=".13"/><g transform="translate(0 0)"><path d="M285 460h650v470l-86 120H365l-80-120Z" fill="#f1be2c" stroke="#231a12" stroke-width="8"/><path d="M350 540h520v300H350z" fill="#FAF6EC"/><text x="600" y="690" text-anchor="middle" fill="#2f7d3c" font-size="34" font-weight="900" letter-spacing="4">SAI GOLD</text><path d="M535 742c40-55 88-55 130 0-28 34-82 34-130 0Z" fill="none" stroke="#f4b323" stroke-width="10"/><text x="600" y="815" text-anchor="middle" fill="#231a12" font-size="58" font-family="Georgia,serif" font-weight="700">PALM</text><text x="600" y="875" text-anchor="middle" fill="#231a12" font-size="42" font-family="Georgia,serif" font-weight="700">OIL BOX</text><text x="600" y="928" text-anchor="middle" fill="#2f7d3c" font-size="24" font-weight="900" letter-spacing="3">TRADE PACK - 15 KG</text><text x="600" y="984" text-anchor="middle" fill="#786956" font-size="20" font-weight="700">FSSAI - SAI AGRO FOODS - KARUR</text></g><circle cx="420" cy="1250" r="28" fill="#c8412b"/><circle cx="455" cy="1280" r="28" fill="#f4b323"/><circle cx="490" cy="1246" r="28" fill="#c8412b"/><text x="600" y="1390" text-anchor="middle" fill="#786956" font-size="34" font-family="Georgia,serif">PALM OIL BOX KITCHEN</text><rect width="1200" height="1500" filter="url(#grain)" opacity=".025"/></svg>